<?xml version="1.0" encoding="utf-8"?>
<!-- Designed by Vexels.com - 2016 All Rights Reserved - https://vexels.com/terms-and-conditions/  -->

<svg version="1.1" id="Capa_1" xmlns="http://www.w3.org/2000/svg" xmlns:xlink="http://www.w3.org/1999/xlink" x="0px" y="0px"
	 width="1200px" height="1200px" viewBox="0 0 1200 1200" enable-background="new 0 0 1200 1200" xml:space="preserve">
<path style="fill: white;" d="M1076.749,872.004V327.99c0-0.014-0.003-0.025-0.003-0.036c-0.001-0.212-0.014-0.423-0.042-0.635
	c-0.001-0.012-0.004-0.022-0.006-0.034c-0.026-0.188-0.065-0.377-0.113-0.563c-0.013-0.048-0.025-0.095-0.039-0.142
	c-0.045-0.154-0.097-0.307-0.156-0.459c-0.018-0.045-0.034-0.09-0.053-0.135c-0.079-0.184-0.165-0.365-0.268-0.543
	c-0.001-0.002-0.002-0.004-0.004-0.006c-0.004-0.008-0.009-0.014-0.014-0.021c-0.099-0.17-0.208-0.33-0.323-0.484
	c-0.032-0.043-0.068-0.085-0.102-0.127c-0.098-0.123-0.199-0.24-0.307-0.353c-0.036-0.036-0.072-0.074-0.109-0.111
	c-0.141-0.138-0.288-0.27-0.442-0.389c-0.005-0.003-0.009-0.008-0.013-0.011c-0.168-0.129-0.345-0.245-0.526-0.353
	c-0.012-0.006-0.022-0.017-0.035-0.022L604.192,52.209C603.244,50.838,601.686,50,600,50s-3.245,0.838-4.193,2.209L125.806,323.566
	c-0.007,0.003-0.012,0.008-0.019,0.012c-0.362,0.211-0.699,0.469-1.004,0.77c-0.033,0.031-0.064,0.066-0.097,0.099
	c-0.11,0.114-0.215,0.233-0.315,0.36c-0.033,0.042-0.068,0.082-0.1,0.125c-0.108,0.146-0.21,0.297-0.304,0.456
	c-0.011,0.019-0.024,0.036-0.035,0.056h-0.001c-0.101,0.176-0.187,0.355-0.265,0.535c-0.022,0.053-0.041,0.107-0.062,0.159
	c-0.055,0.142-0.104,0.286-0.147,0.432c-0.015,0.054-0.031,0.106-0.045,0.161c-0.045,0.176-0.082,0.354-0.107,0.531
	c-0.003,0.021-0.008,0.043-0.011,0.064c-0.027,0.207-0.04,0.414-0.042,0.621c0,0.014-0.002,0.028-0.002,0.043v544.018
	c0,0.002,0,0.004,0,0.007v0.574c0,1.825,0.974,3.514,2.555,4.424l471.641,272.303c0.79,0.457,1.672,0.685,2.554,0.685
	s1.765-0.228,2.555-0.685l471.64-272.303c1.581-0.91,2.555-2.599,2.555-4.424v-0.572
	C1076.749,872.013,1076.749,872.009,1076.749,872.004z M827.017,458.53H677.728L603.54,330.034h149.289L827.017,458.53z
	 M764.627,330.034h293.209L837.705,456.607L764.627,330.034z M673.599,734.236H526.401l-79.295-137.342l73.986-128.146h157.816
	l73.984,128.146L673.599,734.236z M758.791,607.112l73.396,127.124H685.396L758.791,607.112z M528.76,738.323h142.478L600,861.713
	L528.76,738.323z M514.603,734.236H367.811l73.396-127.124L514.603,734.236z M444.747,592.809l-71.626-124.061h143.252
	L444.747,592.809z M673.008,458.53H526.991L600,332.076L673.008,458.53z M683.627,468.748h143.251l-71.626,124.061L683.627,468.748z
	 M602.043,325.945V68.866l148.426,257.079H602.043z M597.957,325.945H449.53L597.957,68.866V325.945z M596.461,330.034
	L522.273,458.53H372.983l74.188-128.496H596.461z M362.294,456.609l-220.13-126.575h293.208L362.294,456.609z M357.186,465.457
	l-73.549,127.391L136.985,338.842L357.186,465.457z M364.202,473.736l74.646,129.29L364.18,732.353l-74.645-129.287L364.202,473.736
	z M361.343,735.612l-222.587,128.61l148.419-257.07L361.343,735.612z M363.386,739.153l73.756,127.749H142.288L363.386,739.153z
	 M367.627,738.323h149.335l74.235,128.579H441.862L367.627,738.323z M594.891,877.12v254.835L447.761,877.12H594.891z
	 M605.108,877.12h147.037l-147.037,254.674V877.12z M608.802,866.902l74.235-128.579h149.242l-74.234,128.579H608.802z
	 M836.543,739.112l221.17,127.79H762.764L836.543,739.112z M838.588,735.572l74.189-128.5l148.467,257.15L838.588,735.572z
	 M835.773,732.273l-74.622-129.249l74.646-129.289l74.621,129.249L835.773,732.273z M842.813,465.457l220.062-126.535
	L916.317,592.767L842.813,465.457z M762.267,325.945L614.458,69.934l443.425,256.012H762.267z M437.732,325.945H142.117
	L585.542,69.934L437.732,325.945z M133.469,340.926l147.808,256.01l-147.808,256.01V340.926z M443.042,877.12l148.31,256.879
	L146.425,877.12H443.042z M756.864,877.12h296.712l-445.068,256.96L756.864,877.12z M918.676,596.854l147.855-256.091v512.183
	L918.676,596.854z"/>
</svg>
